<svg width="15" height="15" viewBox="0 0 14 14" fill="none" xmlns="http://www.w3.org/2000/svg">
<path d="M12.218 11.8758C9.4529 14.677 4.92313 14.7046 2.12186 11.9372C-0.679351 9.16965 -0.706857 4.63993 2.06055 1.83983C2.79288 1.09979 3.68769 0.533025 4.71851 0.160725C5.04324 0.0448461 5.40402 0.125212 5.64714 0.36661C5.89271 0.609165 5.9774 0.96889 5.86434 1.29267C5.17673 3.27013 5.66617 5.4031 7.13928 6.85848C8.6101 8.3126 10.7489 8.77499 12.7201 8.06574C13.0425 7.94876 13.4044 8.02912 13.6487 8.27168C13.8943 8.51184 13.9778 8.8728 13.8647 9.19774C13.5073 10.2329 12.9503 11.1346 12.218 11.8758ZM3.33023 3.09419C1.25463 5.19516 1.27526 8.59304 3.37622 10.6675C5.62097 12.8863 9.41975 12.6621 11.35 10.1634C9.34494 10.3011 7.36505 9.58914 5.88493 8.128C4.40481 6.66691 3.67002 4.69575 3.78329 2.68925C3.62374 2.81584 3.47227 2.95041 3.33023 3.09419Z" fill="white"/>
</svg>
